<?xml version="1.0" encoding="UTF-8" standalone="yes"?>
<svg xmlns="http://www.w3.org/2000/svg" viewBox="0 0 50 50" width="50" height="50" fill="#000000">
  <path d="M 37.875 2 C 37.652344 2.023438 37.441406 2.125 37.28125 2.28125 L 25 14.5625 L 17.71875 7.28125 C 17.320313 6.882813 16.679688 6.882813 16.28125 7.28125 C 15.882813 7.679688 15.882813 8.320313 16.28125 8.71875 L 22.5625 15 L 6 15 C 2.699219 15 0 17.699219 0 21 L 0 44 C 0 47.300781 2.699219 50 6 50 L 44 50 C 47.300781 50 50 47.300781 50 44 L 50 21 C 50 17.699219 47.300781 15 44 15 L 27.4375 15 L 38.71875 3.71875 C 39.042969 3.417969 39.128906 2.941406 38.933594 2.546875 C 38.742188 2.148438 38.308594 1.929688 37.875 2 Z M 6 17 L 24.8125 17 C 24.9375 17.023438 25.0625 17.023438 25.1875 17 L 44 17 C 46.21875 17 48 18.78125 48 21 L 48 44 C 48 46.21875 46.21875 48 44 48 L 6 48 C 3.78125 48 2 46.21875 2 44 L 2 21 C 2 18.78125 3.78125 17 6 17 Z M 20.5 18 C 13.308594 18 9.058594 17.902344 6.28125 19.9375 C 4.894531 20.953125 4.050781 22.5 3.59375 24.53125 C 3.136719 26.5625 3 29.136719 3 32.5 C 3 35.867188 3.136719 38.4375 3.59375 40.46875 C 4.050781 42.5 4.894531 44.046875 6.28125 45.0625 C 9.058594 47.097656 13.308594 47 20.5 47 C 27.65625 47 31.929688 47.113281 34.71875 45.09375 C 36.113281 44.085938 36.945313 42.539063 37.40625 40.5 C 37.867188 38.460938 38 35.894531 38 32.5 C 38 29.109375 37.886719 26.535156 37.4375 24.5 C 36.988281 22.464844 36.136719 20.917969 34.75 19.90625 C 31.976563 17.882813 27.726563 18 20.5 18 Z M 20.5 20 C 27.726563 20 31.730469 20.140625 33.59375 21.5 C 34.527344 22.179688 35.082031 23.179688 35.46875 24.9375 C 35.855469 26.695313 36 29.160156 36 32.5 C 36 35.839844 35.867188 38.308594 35.46875 40.0625 C 35.070313 41.816406 34.472656 42.816406 33.53125 43.5 C 31.648438 44.863281 27.65625 45 20.5 45 C 13.316406 45 9.316406 44.8125 7.4375 43.4375 C 6.496094 42.75 5.921875 41.78125 5.53125 40.03125 C 5.140625 38.28125 5 35.8125 5 32.5 C 5 29.1875 5.140625 26.71875 5.53125 24.96875 C 5.921875 23.21875 6.496094 22.25 7.4375 21.5625 C 9.316406 20.183594 13.316406 20 20.5 20 Z M 43 26 C 41.894531 26 41 26.894531 41 28 C 41 29.105469 41.894531 30 43 30 C 44.105469 30 45 29.105469 45 28 C 45 26.894531 44.105469 26 43 26 Z M 43 35 C 41.894531 35 41 35.894531 41 37 C 41 38.105469 41.894531 39 43 39 C 44.105469 39 45 38.105469 45 37 C 45 35.894531 44.105469 35 43 35 Z"/>
</svg>
